<mxfile host="app.diagrams.net" modified="2023-02-15T00:55:02.215Z" agent="5.0 (Windows NT 10.0; Win64; x64) AppleWebKit/537.36 (KHTML, like Gecko) Chrome/110.0.0.0 Safari/537.36" etag="mOa3VpCg1l2WAx735cl0" version="20.7.3" type="github">
  <diagram id="C5RBs43oDa-KdzZeNtuy" name="Page-1">
    <mxGraphModel dx="1028" dy="569" grid="1" gridSize="10" guides="1" tooltips="1" connect="1" arrows="1" fold="1" page="1" pageScale="1" pageWidth="827" pageHeight="1169" math="0" shadow="0">
      <root>
        <mxCell id="WIyWlLk6GJQsqaUBKTNV-0" />
        <mxCell id="WIyWlLk6GJQsqaUBKTNV-1" parent="WIyWlLk6GJQsqaUBKTNV-0" />
        <mxCell id="KNxOe-r_4k1k-nw4Xo-1-0" value="Passageiro" style="rounded=1;whiteSpace=wrap;html=1;" vertex="1" parent="WIyWlLk6GJQsqaUBKTNV-1">
          <mxGeometry x="90" y="265" width="120" height="60" as="geometry" />
        </mxCell>
        <mxCell id="KNxOe-r_4k1k-nw4Xo-1-1" value="Onibus" style="rounded=1;whiteSpace=wrap;html=1;" vertex="1" parent="WIyWlLk6GJQsqaUBKTNV-1">
          <mxGeometry x="770" y="262.5" width="120" height="60" as="geometry" />
        </mxCell>
        <mxCell id="KNxOe-r_4k1k-nw4Xo-1-2" value="Cartão URBS" style="rounded=1;whiteSpace=wrap;html=1;" vertex="1" parent="WIyWlLk6GJQsqaUBKTNV-1">
          <mxGeometry x="440" y="265" width="110" height="60" as="geometry" />
        </mxCell>
        <mxCell id="KNxOe-r_4k1k-nw4Xo-1-3" value="ID_Pass" style="ellipse;whiteSpace=wrap;html=1;" vertex="1" parent="WIyWlLk6GJQsqaUBKTNV-1">
          <mxGeometry y="280" width="60" height="40" as="geometry" />
        </mxCell>
        <mxCell id="KNxOe-r_4k1k-nw4Xo-1-4" value="Nome" style="ellipse;whiteSpace=wrap;html=1;" vertex="1" parent="WIyWlLk6GJQsqaUBKTNV-1">
          <mxGeometry x="5" y="215" width="55" height="40" as="geometry" />
        </mxCell>
        <mxCell id="KNxOe-r_4k1k-nw4Xo-1-5" value="Possui" style="rhombus;whiteSpace=wrap;html=1;" vertex="1" parent="WIyWlLk6GJQsqaUBKTNV-1">
          <mxGeometry x="270" y="265" width="100" height="60" as="geometry" />
        </mxCell>
        <mxCell id="KNxOe-r_4k1k-nw4Xo-1-6" value="Rua" style="ellipse;whiteSpace=wrap;html=1;" vertex="1" parent="WIyWlLk6GJQsqaUBKTNV-1">
          <mxGeometry x="60" y="190" width="70" height="45" as="geometry" />
        </mxCell>
        <mxCell id="KNxOe-r_4k1k-nw4Xo-1-7" value="Número" style="ellipse;whiteSpace=wrap;html=1;" vertex="1" parent="WIyWlLk6GJQsqaUBKTNV-1">
          <mxGeometry x="140" y="170" width="70" height="45" as="geometry" />
        </mxCell>
        <mxCell id="KNxOe-r_4k1k-nw4Xo-1-8" value="Bairro" style="ellipse;whiteSpace=wrap;html=1;" vertex="1" parent="WIyWlLk6GJQsqaUBKTNV-1">
          <mxGeometry x="20" y="370" width="70" height="45" as="geometry" />
        </mxCell>
        <mxCell id="KNxOe-r_4k1k-nw4Xo-1-9" value="Cidade" style="ellipse;whiteSpace=wrap;html=1;" vertex="1" parent="WIyWlLk6GJQsqaUBKTNV-1">
          <mxGeometry x="115" y="370" width="70" height="45" as="geometry" />
        </mxCell>
        <mxCell id="KNxOe-r_4k1k-nw4Xo-1-10" value="UF" style="ellipse;whiteSpace=wrap;html=1;" vertex="1" parent="WIyWlLk6GJQsqaUBKTNV-1">
          <mxGeometry x="200" y="370" width="70" height="45" as="geometry" />
        </mxCell>
        <mxCell id="KNxOe-r_4k1k-nw4Xo-1-11" value="" style="endArrow=none;html=1;rounded=0;entryX=0.5;entryY=1;entryDx=0;entryDy=0;exitX=0.75;exitY=0;exitDx=0;exitDy=0;" edge="1" parent="WIyWlLk6GJQsqaUBKTNV-1" source="KNxOe-r_4k1k-nw4Xo-1-0" target="KNxOe-r_4k1k-nw4Xo-1-7">
          <mxGeometry width="50" height="50" relative="1" as="geometry">
            <mxPoint x="170" y="260" as="sourcePoint" />
            <mxPoint x="220" y="210" as="targetPoint" />
          </mxGeometry>
        </mxCell>
        <mxCell id="KNxOe-r_4k1k-nw4Xo-1-12" value="" style="endArrow=none;html=1;rounded=0;entryX=0.125;entryY=0.987;entryDx=0;entryDy=0;entryPerimeter=0;" edge="1" parent="WIyWlLk6GJQsqaUBKTNV-1" source="KNxOe-r_4k1k-nw4Xo-1-8" target="KNxOe-r_4k1k-nw4Xo-1-0">
          <mxGeometry width="50" height="50" relative="1" as="geometry">
            <mxPoint x="90" y="340" as="sourcePoint" />
            <mxPoint x="140" y="290" as="targetPoint" />
          </mxGeometry>
        </mxCell>
        <mxCell id="KNxOe-r_4k1k-nw4Xo-1-16" value="" style="endArrow=none;html=1;rounded=0;exitX=0.75;exitY=1;exitDx=0;exitDy=0;" edge="1" parent="WIyWlLk6GJQsqaUBKTNV-1" source="KNxOe-r_4k1k-nw4Xo-1-0" target="KNxOe-r_4k1k-nw4Xo-1-10">
          <mxGeometry width="50" height="50" relative="1" as="geometry">
            <mxPoint x="300" y="350" as="sourcePoint" />
            <mxPoint x="350" y="300" as="targetPoint" />
          </mxGeometry>
        </mxCell>
        <mxCell id="KNxOe-r_4k1k-nw4Xo-1-17" value="" style="endArrow=none;html=1;rounded=0;entryX=0.5;entryY=1;entryDx=0;entryDy=0;exitX=0.5;exitY=0;exitDx=0;exitDy=0;" edge="1" parent="WIyWlLk6GJQsqaUBKTNV-1" source="KNxOe-r_4k1k-nw4Xo-1-9" target="KNxOe-r_4k1k-nw4Xo-1-0">
          <mxGeometry width="50" height="50" relative="1" as="geometry">
            <mxPoint x="300" y="350" as="sourcePoint" />
            <mxPoint x="350" y="300" as="targetPoint" />
          </mxGeometry>
        </mxCell>
        <mxCell id="KNxOe-r_4k1k-nw4Xo-1-18" value="" style="endArrow=none;html=1;rounded=0;exitX=1;exitY=0.5;exitDx=0;exitDy=0;entryX=0;entryY=0.5;entryDx=0;entryDy=0;" edge="1" parent="WIyWlLk6GJQsqaUBKTNV-1" source="KNxOe-r_4k1k-nw4Xo-1-3" target="KNxOe-r_4k1k-nw4Xo-1-0">
          <mxGeometry width="50" height="50" relative="1" as="geometry">
            <mxPoint x="300" y="350" as="sourcePoint" />
            <mxPoint x="350" y="300" as="targetPoint" />
          </mxGeometry>
        </mxCell>
        <mxCell id="KNxOe-r_4k1k-nw4Xo-1-20" value="" style="endArrow=none;html=1;rounded=0;entryX=0.5;entryY=1;entryDx=0;entryDy=0;exitX=0.25;exitY=0;exitDx=0;exitDy=0;" edge="1" parent="WIyWlLk6GJQsqaUBKTNV-1" source="KNxOe-r_4k1k-nw4Xo-1-0" target="KNxOe-r_4k1k-nw4Xo-1-6">
          <mxGeometry width="50" height="50" relative="1" as="geometry">
            <mxPoint x="300" y="350" as="sourcePoint" />
            <mxPoint x="350" y="300" as="targetPoint" />
          </mxGeometry>
        </mxCell>
        <mxCell id="KNxOe-r_4k1k-nw4Xo-1-21" value="" style="endArrow=none;html=1;rounded=0;entryX=1;entryY=1;entryDx=0;entryDy=0;exitX=0;exitY=0.25;exitDx=0;exitDy=0;" edge="1" parent="WIyWlLk6GJQsqaUBKTNV-1" source="KNxOe-r_4k1k-nw4Xo-1-0" target="KNxOe-r_4k1k-nw4Xo-1-4">
          <mxGeometry width="50" height="50" relative="1" as="geometry">
            <mxPoint x="300" y="350" as="sourcePoint" />
            <mxPoint x="350" y="300" as="targetPoint" />
          </mxGeometry>
        </mxCell>
        <mxCell id="KNxOe-r_4k1k-nw4Xo-1-22" value="" style="endArrow=none;html=1;rounded=0;exitX=1;exitY=0.5;exitDx=0;exitDy=0;entryX=0;entryY=0.5;entryDx=0;entryDy=0;" edge="1" parent="WIyWlLk6GJQsqaUBKTNV-1" source="KNxOe-r_4k1k-nw4Xo-1-0" target="KNxOe-r_4k1k-nw4Xo-1-5">
          <mxGeometry width="50" height="50" relative="1" as="geometry">
            <mxPoint x="300" y="350" as="sourcePoint" />
            <mxPoint x="350" y="300" as="targetPoint" />
          </mxGeometry>
        </mxCell>
        <mxCell id="KNxOe-r_4k1k-nw4Xo-1-23" value="" style="endArrow=none;html=1;rounded=0;entryX=1;entryY=0.5;entryDx=0;entryDy=0;exitX=0;exitY=0.5;exitDx=0;exitDy=0;" edge="1" parent="WIyWlLk6GJQsqaUBKTNV-1" source="KNxOe-r_4k1k-nw4Xo-1-2" target="KNxOe-r_4k1k-nw4Xo-1-5">
          <mxGeometry width="50" height="50" relative="1" as="geometry">
            <mxPoint x="300" y="350" as="sourcePoint" />
            <mxPoint x="350" y="300" as="targetPoint" />
          </mxGeometry>
        </mxCell>
        <mxCell id="KNxOe-r_4k1k-nw4Xo-1-54" value="" style="edgeStyle=orthogonalEdgeStyle;rounded=0;orthogonalLoop=1;jettySize=auto;html=1;" edge="1" parent="WIyWlLk6GJQsqaUBKTNV-1" source="KNxOe-r_4k1k-nw4Xo-1-25" target="KNxOe-r_4k1k-nw4Xo-1-46">
          <mxGeometry relative="1" as="geometry" />
        </mxCell>
        <mxCell id="KNxOe-r_4k1k-nw4Xo-1-25" value="Possui" style="rhombus;whiteSpace=wrap;html=1;" vertex="1" parent="WIyWlLk6GJQsqaUBKTNV-1">
          <mxGeometry x="610" y="260" width="90" height="65" as="geometry" />
        </mxCell>
        <mxCell id="KNxOe-r_4k1k-nw4Xo-1-26" value="" style="endArrow=none;html=1;rounded=0;entryX=0;entryY=0.5;entryDx=0;entryDy=0;exitX=1;exitY=0.5;exitDx=0;exitDy=0;" edge="1" parent="WIyWlLk6GJQsqaUBKTNV-1" source="KNxOe-r_4k1k-nw4Xo-1-2" target="KNxOe-r_4k1k-nw4Xo-1-25">
          <mxGeometry width="50" height="50" relative="1" as="geometry">
            <mxPoint x="550" y="350" as="sourcePoint" />
            <mxPoint x="600" y="300" as="targetPoint" />
          </mxGeometry>
        </mxCell>
        <mxCell id="KNxOe-r_4k1k-nw4Xo-1-27" value="" style="endArrow=none;html=1;rounded=0;entryX=1;entryY=0.5;entryDx=0;entryDy=0;exitX=0;exitY=0.5;exitDx=0;exitDy=0;" edge="1" parent="WIyWlLk6GJQsqaUBKTNV-1" source="KNxOe-r_4k1k-nw4Xo-1-1" target="KNxOe-r_4k1k-nw4Xo-1-25">
          <mxGeometry width="50" height="50" relative="1" as="geometry">
            <mxPoint x="550" y="350" as="sourcePoint" />
            <mxPoint x="600" y="300" as="targetPoint" />
          </mxGeometry>
        </mxCell>
        <mxCell id="KNxOe-r_4k1k-nw4Xo-1-28" value="ID_Pass" style="ellipse;whiteSpace=wrap;html=1;" vertex="1" parent="WIyWlLk6GJQsqaUBKTNV-1">
          <mxGeometry x="375" y="178" width="90" height="57" as="geometry" />
        </mxCell>
        <mxCell id="KNxOe-r_4k1k-nw4Xo-1-29" value="ID_Cartão" style="ellipse;whiteSpace=wrap;html=1;" vertex="1" parent="WIyWlLk6GJQsqaUBKTNV-1">
          <mxGeometry x="520" y="178" width="90" height="57" as="geometry" />
        </mxCell>
        <mxCell id="KNxOe-r_4k1k-nw4Xo-1-30" value="Créditos" style="ellipse;whiteSpace=wrap;html=1;" vertex="1" parent="WIyWlLk6GJQsqaUBKTNV-1">
          <mxGeometry x="350" y="362.5" width="105" height="60" as="geometry" />
        </mxCell>
        <mxCell id="KNxOe-r_4k1k-nw4Xo-1-31" value="ID_Onibus" style="ellipse;whiteSpace=wrap;html=1;" vertex="1" parent="WIyWlLk6GJQsqaUBKTNV-1">
          <mxGeometry x="480" y="360" width="100" height="65" as="geometry" />
        </mxCell>
        <mxCell id="KNxOe-r_4k1k-nw4Xo-1-32" value="ID_Onibus" style="ellipse;whiteSpace=wrap;html=1;" vertex="1" parent="WIyWlLk6GJQsqaUBKTNV-1">
          <mxGeometry x="720" y="178" width="90" height="57.5" as="geometry" />
        </mxCell>
        <mxCell id="KNxOe-r_4k1k-nw4Xo-1-33" value="Linha" style="ellipse;whiteSpace=wrap;html=1;" vertex="1" parent="WIyWlLk6GJQsqaUBKTNV-1">
          <mxGeometry x="840" y="180" width="90" height="55" as="geometry" />
        </mxCell>
        <mxCell id="KNxOe-r_4k1k-nw4Xo-1-34" value="Quilometragem" style="ellipse;whiteSpace=wrap;html=1;" vertex="1" parent="WIyWlLk6GJQsqaUBKTNV-1">
          <mxGeometry x="720" y="355" width="100" height="62.5" as="geometry" />
        </mxCell>
        <mxCell id="KNxOe-r_4k1k-nw4Xo-1-35" value="Motorista" style="ellipse;whiteSpace=wrap;html=1;" vertex="1" parent="WIyWlLk6GJQsqaUBKTNV-1">
          <mxGeometry x="840" y="357.5" width="100" height="60" as="geometry" />
        </mxCell>
        <mxCell id="KNxOe-r_4k1k-nw4Xo-1-36" value="" style="endArrow=none;html=1;rounded=0;entryX=0.75;entryY=1;entryDx=0;entryDy=0;" edge="1" parent="WIyWlLk6GJQsqaUBKTNV-1" target="KNxOe-r_4k1k-nw4Xo-1-2">
          <mxGeometry width="50" height="50" relative="1" as="geometry">
            <mxPoint x="550" y="360" as="sourcePoint" />
            <mxPoint x="620" y="330" as="targetPoint" />
          </mxGeometry>
        </mxCell>
        <mxCell id="KNxOe-r_4k1k-nw4Xo-1-39" value="" style="endArrow=none;html=1;rounded=0;entryX=0.25;entryY=1;entryDx=0;entryDy=0;exitX=0.5;exitY=0;exitDx=0;exitDy=0;" edge="1" parent="WIyWlLk6GJQsqaUBKTNV-1" source="KNxOe-r_4k1k-nw4Xo-1-30" target="KNxOe-r_4k1k-nw4Xo-1-2">
          <mxGeometry width="50" height="50" relative="1" as="geometry">
            <mxPoint x="570" y="380" as="sourcePoint" />
            <mxPoint x="620" y="330" as="targetPoint" />
          </mxGeometry>
        </mxCell>
        <mxCell id="KNxOe-r_4k1k-nw4Xo-1-40" value="" style="endArrow=none;html=1;rounded=0;entryX=1;entryY=1;entryDx=0;entryDy=0;exitX=0.323;exitY=0.022;exitDx=0;exitDy=0;exitPerimeter=0;" edge="1" parent="WIyWlLk6GJQsqaUBKTNV-1" source="KNxOe-r_4k1k-nw4Xo-1-2" target="KNxOe-r_4k1k-nw4Xo-1-28">
          <mxGeometry width="50" height="50" relative="1" as="geometry">
            <mxPoint x="480" y="260" as="sourcePoint" />
            <mxPoint x="620" y="330" as="targetPoint" />
          </mxGeometry>
        </mxCell>
        <mxCell id="KNxOe-r_4k1k-nw4Xo-1-41" value="" style="endArrow=none;html=1;rounded=0;entryX=0.25;entryY=1;entryDx=0;entryDy=0;exitX=0.5;exitY=0;exitDx=0;exitDy=0;" edge="1" parent="WIyWlLk6GJQsqaUBKTNV-1" source="KNxOe-r_4k1k-nw4Xo-1-34" target="KNxOe-r_4k1k-nw4Xo-1-1">
          <mxGeometry width="50" height="50" relative="1" as="geometry">
            <mxPoint x="570" y="380" as="sourcePoint" />
            <mxPoint x="620" y="330" as="targetPoint" />
          </mxGeometry>
        </mxCell>
        <mxCell id="KNxOe-r_4k1k-nw4Xo-1-42" value="" style="endArrow=none;html=1;rounded=0;entryX=0.264;entryY=0.97;entryDx=0;entryDy=0;entryPerimeter=0;exitX=0.75;exitY=0;exitDx=0;exitDy=0;" edge="1" parent="WIyWlLk6GJQsqaUBKTNV-1" source="KNxOe-r_4k1k-nw4Xo-1-1" target="KNxOe-r_4k1k-nw4Xo-1-33">
          <mxGeometry width="50" height="50" relative="1" as="geometry">
            <mxPoint x="570" y="380" as="sourcePoint" />
            <mxPoint x="620" y="330" as="targetPoint" />
          </mxGeometry>
        </mxCell>
        <mxCell id="KNxOe-r_4k1k-nw4Xo-1-43" value="" style="endArrow=none;html=1;rounded=0;entryX=0.5;entryY=1;entryDx=0;entryDy=0;exitX=0.75;exitY=0;exitDx=0;exitDy=0;" edge="1" parent="WIyWlLk6GJQsqaUBKTNV-1" source="KNxOe-r_4k1k-nw4Xo-1-2" target="KNxOe-r_4k1k-nw4Xo-1-29">
          <mxGeometry width="50" height="50" relative="1" as="geometry">
            <mxPoint x="570" y="380" as="sourcePoint" />
            <mxPoint x="620" y="330" as="targetPoint" />
          </mxGeometry>
        </mxCell>
        <mxCell id="KNxOe-r_4k1k-nw4Xo-1-44" value="" style="endArrow=none;html=1;rounded=0;entryX=0.5;entryY=1;entryDx=0;entryDy=0;exitX=0.25;exitY=0;exitDx=0;exitDy=0;" edge="1" parent="WIyWlLk6GJQsqaUBKTNV-1" source="KNxOe-r_4k1k-nw4Xo-1-1" target="KNxOe-r_4k1k-nw4Xo-1-32">
          <mxGeometry width="50" height="50" relative="1" as="geometry">
            <mxPoint x="570" y="380" as="sourcePoint" />
            <mxPoint x="620" y="330" as="targetPoint" />
          </mxGeometry>
        </mxCell>
        <mxCell id="KNxOe-r_4k1k-nw4Xo-1-45" value="" style="endArrow=none;html=1;rounded=0;entryX=0.75;entryY=1;entryDx=0;entryDy=0;exitX=0.5;exitY=0;exitDx=0;exitDy=0;" edge="1" parent="WIyWlLk6GJQsqaUBKTNV-1" source="KNxOe-r_4k1k-nw4Xo-1-35" target="KNxOe-r_4k1k-nw4Xo-1-1">
          <mxGeometry width="50" height="50" relative="1" as="geometry">
            <mxPoint x="570" y="380" as="sourcePoint" />
            <mxPoint x="620" y="330" as="targetPoint" />
          </mxGeometry>
        </mxCell>
        <mxCell id="KNxOe-r_4k1k-nw4Xo-1-46" value="Viagens" style="rounded=1;whiteSpace=wrap;html=1;" vertex="1" parent="WIyWlLk6GJQsqaUBKTNV-1">
          <mxGeometry x="595" y="400" width="120" height="60" as="geometry" />
        </mxCell>
        <mxCell id="KNxOe-r_4k1k-nw4Xo-1-47" value="ID_Cartão" style="ellipse;whiteSpace=wrap;html=1;" vertex="1" parent="WIyWlLk6GJQsqaUBKTNV-1">
          <mxGeometry x="690" y="560" width="100" height="50" as="geometry" />
        </mxCell>
        <mxCell id="KNxOe-r_4k1k-nw4Xo-1-48" value="ID_Onibus" style="ellipse;whiteSpace=wrap;html=1;" vertex="1" parent="WIyWlLk6GJQsqaUBKTNV-1">
          <mxGeometry x="550" y="560" width="100" height="50" as="geometry" />
        </mxCell>
        <mxCell id="KNxOe-r_4k1k-nw4Xo-1-49" value="" style="endArrow=none;html=1;rounded=0;entryX=0.5;entryY=0;entryDx=0;entryDy=0;exitX=0.75;exitY=1;exitDx=0;exitDy=0;" edge="1" parent="WIyWlLk6GJQsqaUBKTNV-1" source="KNxOe-r_4k1k-nw4Xo-1-46" target="KNxOe-r_4k1k-nw4Xo-1-47">
          <mxGeometry width="50" height="50" relative="1" as="geometry">
            <mxPoint x="480" y="500" as="sourcePoint" />
            <mxPoint x="530" y="450" as="targetPoint" />
          </mxGeometry>
        </mxCell>
        <mxCell id="KNxOe-r_4k1k-nw4Xo-1-50" value="" style="endArrow=none;html=1;rounded=0;exitX=0.25;exitY=1;exitDx=0;exitDy=0;entryX=0.5;entryY=0;entryDx=0;entryDy=0;" edge="1" parent="WIyWlLk6GJQsqaUBKTNV-1" source="KNxOe-r_4k1k-nw4Xo-1-46" target="KNxOe-r_4k1k-nw4Xo-1-48">
          <mxGeometry width="50" height="50" relative="1" as="geometry">
            <mxPoint x="480" y="500" as="sourcePoint" />
            <mxPoint x="530" y="450" as="targetPoint" />
          </mxGeometry>
        </mxCell>
        <mxCell id="KNxOe-r_4k1k-nw4Xo-1-56" value="&lt;font style=&quot;font-size: 36px;&quot;&gt;&lt;b&gt;DIAGRAMA CONCEITUAL&lt;/b&gt;&lt;/font&gt;" style="text;html=1;align=center;verticalAlign=middle;resizable=0;points=[];autosize=1;strokeColor=none;fillColor=none;" vertex="1" parent="WIyWlLk6GJQsqaUBKTNV-1">
          <mxGeometry x="285" y="30" width="470" height="60" as="geometry" />
        </mxCell>
      </root>
    </mxGraphModel>
  </diagram>
</mxfile>
